<?xml version="1.0" standalone="no"?>
<!DOCTYPE svg PUBLIC "-//W3C//DTD SVG 20010904//EN"
 "http://www.w3.org/TR/2001/REC-SVG-20010904/DTD/svg10.dtd">
<svg version="1.0" xmlns="http://www.w3.org/2000/svg"
 width="260.000000pt" height="260.000000pt" viewBox="0 0 260.000000 260.000000"
 preserveAspectRatio="xMidYMid meet">
<metadata>
Created by potrace 1.11, written by Peter Selinger 2001-2013
</metadata>
<g transform="translate(0.000000,260.000000) scale(0.100000,-0.100000)"
fill="#000000" stroke="none">
<path d="M1285 2299 c4 -10 -1 -15 -14 -15 -11 0 -17 4 -14 9 11 17 -42 -5
-57 -24 -13 -16 -18 -17 -29 -7 -11 10 -12 10 -7 1 11 -19 -4 -38 -16 -22 -7
10 -8 6 -5 -13 2 -15 1 -27 -2 -26 -22 2 -32 -4 -27 -17 3 -8 0 -14 -7 -12 -7
1 -11 -4 -10 -10 2 -7 -5 -13 -15 -14 -10 0 -12 -3 -4 -6 6 -2 12 -11 12 -19
0 -10 -5 -12 -12 -8 -10 6 -10 4 0 -8 10 -13 10 -18 1 -24 -8 -5 -9 -3 -4 7 8
12 6 12 -8 0 -17 -14 -24 -26 -9 -17 4 2 14 1 22 -5 12 -7 11 -9 -5 -9 -15 0
-17 -3 -7 -9 11 -7 11 -9 -2 -14 -14 -5 -14 -10 -4 -26 7 -11 17 -17 23 -15 5
3 1 -2 -9 -10 -15 -12 -16 -16 -5 -16 12 0 12 -2 -1 -10 -12 -8 -12 -10 5 -11
17 -1 16 -2 -5 -9 -18 -6 -20 -8 -7 -9 10 -1 15 -6 12 -11 -4 -6 -2 -17 5 -25
9 -11 7 -12 -12 -8 l-23 5 23 -17 c24 -18 21 -38 -5 -28 -11 4 -14 3 -9 -5 4
-7 15 -12 24 -13 11 -1 8 -4 -8 -9 -21 -7 -22 -8 -5 -9 17 -1 17 -3 5 -11 -12
-8 -12 -10 5 -11 17 -1 16 -2 -5 -9 -18 -6 -20 -8 -7 -9 10 -1 15 -6 12 -11
-4 -6 -2 -17 5 -25 9 -11 7 -12 -12 -8 l-23 5 23 -17 c24 -18 21 -38 -5 -28
-11 4 -14 3 -9 -5 4 -7 15 -12 24 -13 11 -1 8 -4 -8 -9 -18 -6 -20 -8 -7 -9
10 -1 15 -6 12 -11 -4 -6 -2 -17 5 -25 7 -9 8 -15 0 -20 -13 -8 -13 -48 1 -62
8 -8 8 -13 0 -17 -6 -4 -11 -16 -11 -27 0 -13 -4 -18 -12 -13 -7 4 -8 3 -4 -5
4 -6 11 -9 16 -6 5 3 11 1 15 -5 3 -5 -1 -10 -9 -10 -20 0 -29 -17 -15 -26 8
-4 9 -3 5 4 -10 17 -1 15 13 -2 9 -11 9 -16 0 -22 -8 -5 -9 -3 -4 6 5 9 4 11
-3 6 -18 -11 -14 -26 6 -27 11 -1 9 -4 -8 -9 -18 -6 -20 -8 -7 -9 10 -1 15 -6
12 -11 -4 -6 -2 -17 5 -25 9 -11 7 -12 -12 -8 l-23 5 23 -17 c24 -18 21 -38
-5 -28 -11 4 -14 3 -9 -5 4 -7 15 -12 24 -13 11 -1 8 -4 -8 -9 -18 -6 -20 -8
-7 -9 10 -1 15 -6 12 -11 -4 -6 -11 -7 -17 -4 -7 4 -8 2 -4 -5 4 -6 11 -9 16
-6 5 3 11 1 15 -5 3 -5 -1 -10 -9 -10 -20 0 -29 -17 -15 -26 8 -5 9 -3 4 7 -8
12 -6 12 8 0 15 -12 15 -31 1 -31 -3 0 -2 5 2 12 4 7 3 8 -5 4 -9 -6 -8 -13 3
-31 10 -15 12 -26 6 -30 -13 -8 -13 -52 -1 -60 6 -3 4 -17 -5 -33 -12 -24 -12
-28 4 -34 13 -5 12 -7 -8 -8 -18 -2 -20 -4 -7 -7 9 -2 15 -9 11 -14 -3 -6 -1
-16 6 -24 9 -11 7 -12 -12 -8 l-23 5 23 -17 c24 -18 21 -38 -5 -28 -11 4 -14
3 -9 -5 4 -7 15 -12 24 -13 11 -1 8 -4 -8 -9 -21 -7 -22 -8 -5 -9 17 -1 17 -3
5 -11 -12 -8 -12 -10 5 -11 17 -1 16 -2 -5 -9 -18 -6 -20 -8 -7 -9 10 -1 15
-6 12 -11 -4 -6 -2 -17 5 -25 9 -11 7 -12 -12 -8 l-23 5 23 -17 c24 -18 21
-38 -5 -28 -11 4 -14 3 -9 -5 4 -7 15 -12 24 -13 11 -1 8 -4 -8 -9 -18 -6 -20
-8 -7 -9 10 -1 15 -6 12 -11 -4 -6 -2 -17 5 -25 7 -9 8 -15 0 -20 -13 -8 -13
-52 -1 -60 6 -3 4 -16 -4 -31 -14 -27 -10 -58 6 -48 13 7 7 -19 -6 -28 -6 -5
-5 -8 3 -8 6 0 12 -11 12 -25 0 -15 6 -25 14 -25 10 0 12 -7 9 -22 -3 -13 -3
-20 2 -16 12 12 34 -15 23 -29 -7 -9 -4 -11 11 -8 14 2 21 -1 21 -11 0 -12 27
-20 54 -15 5 1 6 -5 3 -13 -3 -8 2 -20 11 -28 8 -7 13 -8 10 -3 -4 6 -3 17 3
25 7 13 9 12 9 -2 0 -14 4 -16 24 -8 15 5 27 5 35 -3 8 -8 11 -8 11 2 0 7 5 9
12 5 7 -5 9 -2 6 7 -4 10 3 15 21 16 36 3 103 66 94 89 -3 10 -2 15 3 12 5 -4
18 1 29 9 17 13 17 15 2 9 -13 -4 -16 -2 -10 7 4 6 8 21 8 32 1 11 5 27 8 35
4 8 5 36 4 62 -2 27 0 48 5 48 4 0 8 -5 8 -12 0 -6 3 -8 7 -5 3 4 -1 15 -11
26 -15 17 -15 20 -2 34 10 9 12 17 5 19 -6 2 -12 16 -13 31 -2 19 1 27 13 27
14 1 14 1 0 10 -19 11 -17 104 3 128 9 10 9 13 1 9 -14 -9 -21 10 -15 41 3 16
9 21 21 17 10 -4 8 2 -7 15 -16 15 -20 26 -13 37 4 9 6 24 4 34 -3 11 0 19 6
19 7 0 9 5 5 12 -5 7 -11 5 -21 -7 -7 -11 -13 -14 -13 -8 0 7 4 14 9 17 4 3 7
21 6 41 -1 25 3 35 14 35 11 0 10 4 -5 16 -10 8 -13 13 -6 9 10 -5 11 0 6 19
-4 17 -2 26 6 26 6 0 8 5 4 12 -5 7 -11 5 -21 -7 -7 -11 -13 -14 -13 -8 0 7 4
14 9 17 4 3 7 21 6 41 -1 25 3 35 14 35 11 0 10 4 -5 16 -10 8 -13 13 -6 9 10
-5 11 0 6 19 -4 17 -2 26 6 26 6 0 8 5 4 12 -5 7 -11 5 -21 -7 -7 -11 -13 -14
-13 -8 0 7 4 14 9 17 4 3 7 21 6 41 -1 25 3 35 14 35 11 0 10 4 -5 16 -10 8
-13 13 -6 9 10 -5 11 0 6 19 -4 17 -2 26 6 26 6 0 8 5 4 12 -5 7 -11 5 -21 -7
-7 -11 -13 -14 -13 -8 0 7 4 14 9 17 4 3 7 21 6 41 -1 26 3 35 14 35 13 1 13
3 -2 11 -17 10 -17 12 -2 36 10 14 12 23 7 19 -13 -8 -20 12 -14 42 3 16 9 21
21 18 12 -5 12 -3 -3 8 -14 12 -19 29 -20 80 -1 36 2 66 6 66 5 0 8 -5 8 -12
0 -6 3 -8 7 -5 3 4 -1 15 -11 26 -15 17 -15 20 -2 34 10 9 12 17 5 19 -18 6
-19 58 -1 58 13 0 12 3 -4 16 -10 8 -13 12 -5 8 10 -5 13 -3 8 9 -3 9 -1 18 6
21 9 3 8 5 -1 5 -7 1 -10 6 -6 13 4 7 3 8 -5 4 -6 -4 -9 -11 -6 -16 3 -5 1
-11 -4 -15 -10 -6 -7 27 4 45 3 6 2 10 -2 10 -5 0 -9 9 -10 20 -1 13 3 18 10
14 7 -4 0 6 -16 20 -15 15 -25 31 -22 37 4 5 -1 9 -10 9 -9 0 -13 5 -10 10 3
6 -1 10 -9 10 -8 0 -18 9 -21 21 -6 17 -9 18 -23 7 -9 -7 -13 -8 -11 -3 3 6
-2 18 -13 28 -10 9 -18 13 -18 8 0 -11 -39 -3 -58 12 -9 7 -11 6 -7 -4z m-198
-275 c-3 -3 -12 -4 -19 -1 -8 3 -5 6 6 6 11 1 17 -2 13 -5z"/>
<path d="M1876 2293 c-4 -4 -13 -6 -46 -12 -3 -1 2 -6 10 -12 12 -8 11 -9 -7
-7 -13 2 -29 -5 -38 -17 -9 -11 -13 -14 -9 -6 4 9 3 12 -4 7 -6 -3 -9 -15 -7
-26 3 -14 -1 -17 -12 -13 -13 5 -15 2 -11 -15 4 -15 2 -19 -8 -15 -10 4 -12 0
-8 -11 4 -11 1 -16 -11 -16 -9 0 -13 -5 -10 -10 4 -6 12 -7 18 -3 7 3 3 -4 -8
-17 -11 -13 -15 -20 -8 -17 7 5 10 1 9 -10 -2 -9 -11 -20 -21 -23 -18 -6 -18
-7 0 -18 12 -7 15 -12 6 -12 -9 0 -11 -8 -7 -26 5 -17 3 -23 -4 -19 -12 8 -9
-17 4 -26 4 -4 4 -15 -2 -25 -5 -11 -6 -28 -2 -39 4 -11 3 -26 -2 -32 -7 -9
-7 -13 1 -13 7 0 8 -8 1 -25 -5 -14 -6 -25 -1 -25 11 0 9 -19 -2 -37 -5 -8 -3
-13 3 -13 7 0 8 -6 0 -19 -7 -14 -7 -22 0 -26 8 -5 7 -11 -1 -21 -9 -11 -9
-14 0 -14 8 0 9 -6 3 -17 -5 -10 -6 -27 -1 -38 10 -27 11 -37 1 -31 -5 3 -9
-1 -9 -9 0 -8 5 -15 10 -15 5 0 6 -8 2 -17 -8 -20 -8 -23 -2 -81 3 -23 2 -40
-2 -37 -4 2 -8 -2 -8 -10 0 -8 5 -15 10 -15 5 0 6 -8 2 -17 -8 -20 -8 -23 -2
-81 3 -23 2 -40 -2 -37 -4 2 -8 -2 -8 -10 0 -8 5 -15 10 -15 5 0 6 -8 2 -17
-8 -20 -8 -23 -2 -81 3 -23 2 -40 -2 -37 -4 2 -8 -2 -8 -10 0 -8 5 -15 10 -15
5 0 6 -8 2 -17 -8 -19 -8 -33 -1 -68 2 -11 -1 -26 -7 -32 -6 -9 -6 -13 2 -13
8 0 9 -5 1 -19 -7 -14 -7 -22 0 -26 8 -5 7 -11 -1 -21 -9 -11 -9 -14 0 -14 7
0 9 -4 6 -10 -11 -18 -14 -50 -5 -50 6 0 6 -10 0 -25 -5 -14 -6 -25 -2 -25 4
0 7 -13 8 -30 1 -16 -3 -27 -8 -24 -11 7 -6 -19 6 -27 4 -4 4 -15 -2 -25 -6
-11 -7 -27 -1 -41 6 -16 5 -23 -4 -23 -9 0 -9 -2 1 -8 10 -7 10 -15 2 -36 -7
-19 -7 -25 0 -21 7 4 9 -3 6 -19 -3 -14 0 -29 6 -32 6 -4 8 -2 4 4 -3 6 -2 13
3 16 11 7 9 -13 -3 -33 -6 -9 -5 -12 1 -8 6 4 13 -2 16 -13 3 -11 1 -20 -4
-20 -6 0 -4 -6 3 -14 7 -8 16 -12 20 -9 4 2 5 -4 1 -13 -5 -13 -3 -15 7 -9 9
6 11 4 5 -4 -8 -13 28 -54 39 -44 3 4 6 1 6 -6 0 -7 5 -9 13 -5 9 6 9 4 -1 -8
-11 -14 -10 -16 9 -11 17 5 20 3 14 -7 -5 -8 -4 -11 2 -7 6 4 16 0 23 -8 8
-10 18 -11 34 -5 17 6 28 4 40 -8 14 -13 17 -14 14 -2 -2 8 3 15 10 16 6 1 17
2 23 3 5 0 7 7 3 14 -5 9 -4 9 6 0 11 -10 19 -7 39 15 14 16 19 19 11 8 -12
-17 -9 -16 13 4 15 13 25 30 22 38 -2 7 -1 11 3 9 4 -3 16 -1 27 4 14 5 16 8
4 8 -9 1 -16 7 -16 15 0 8 5 12 11 10 6 -2 17 9 23 26 7 19 7 28 1 24 -6 -4
-6 1 1 13 5 11 8 32 5 47 -2 15 0 26 6 26 6 0 9 -4 5 -9 -3 -5 -1 -12 3 -15
12 -7 9 41 -2 51 -5 5 -6 2 -1 -6 5 -9 4 -12 -3 -7 -6 4 -9 13 -6 21 4 8 9 13
13 10 4 -2 8 3 8 11 0 8 -6 13 -14 10 -7 -3 -13 -1 -13 4 0 6 8 10 18 10 16 1
16 1 0 11 -9 5 -15 16 -12 24 4 8 9 13 14 10 10 -6 7 52 -4 62 -5 5 -6 2 -1
-6 5 -9 4 -12 -3 -7 -6 4 -9 13 -6 21 4 8 9 13 13 10 4 -2 8 3 8 11 0 8 -6 13
-14 10 -7 -3 -13 -1 -13 4 0 6 8 10 18 10 14 0 14 2 3 9 -20 13 -21 60 -1 53
13 -5 13 -4 0 13 -9 11 -10 16 -2 11 18 -11 15 5 -5 19 -13 9 -13 14 -3 20 9
6 11 4 5 -6 -5 -8 -4 -11 0 -6 5 4 10 18 12 30 2 17 1 19 -7 7 -8 -13 -10 -12
-10 3 0 9 6 17 13 17 8 0 7 4 -3 10 -12 8 -13 12 -2 19 11 7 11 9 -2 14 -19 8
-11 34 12 40 15 4 15 5 0 6 -10 0 -18 4 -19 9 0 4 -2 15 -4 24 -2 12 2 15 13
10 15 -5 16 -4 2 13 -9 11 -10 16 -2 11 18 -11 15 5 -5 19 -13 9 -13 14 -3 20
9 6 11 4 5 -5 -5 -8 -4 -11 2 -7 12 8 11 62 -1 74 -5 5 -6 2 -1 -6 5 -9 4 -12
-3 -7 -6 4 -9 13 -6 21 4 8 9 13 13 10 4 -2 8 3 8 11 0 8 -6 13 -14 10 -7 -3
-13 -1 -13 4 0 6 8 10 18 10 16 1 16 1 0 11 -9 5 -15 16 -12 24 4 8 9 13 14
10 10 -6 7 52 -4 62 -5 5 -6 2 -1 -6 5 -9 4 -12 -3 -7 -6 4 -9 13 -6 21 4 8 9
13 13 10 4 -2 8 3 8 11 0 8 -6 13 -14 10 -7 -3 -13 -1 -13 4 0 6 8 10 18 10
14 0 14 2 3 9 -20 13 -21 60 -1 53 13 -5 13 -4 0 13 -9 11 -10 16 -2 11 18
-11 15 5 -5 19 -13 9 -13 14 -3 20 9 6 11 4 5 -6 -5 -8 -4 -11 0 -6 5 4 10 18
12 30 2 17 1 19 -7 7 -8 -13 -10 -12 -10 3 0 9 6 17 13 17 8 0 7 4 -3 10 -12
8 -13 12 -2 19 11 7 11 9 -2 14 -19 8 -11 34 12 40 15 4 15 5 0 6 -10 0 -18 4
-19 9 0 4 -2 15 -4 24 -2 12 2 15 13 10 15 -5 16 -4 2 13 -9 11 -10 16 -2 11
18 -11 15 5 -5 19 -13 9 -13 14 -3 20 9 6 11 4 5 -5 -5 -8 -4 -11 2 -7 12 8
11 62 -1 74 -5 5 -6 2 -1 -6 5 -9 4 -12 -3 -7 -6 4 -9 13 -6 21 4 8 9 13 13
10 4 -2 8 3 8 11 0 8 -6 13 -14 10 -7 -3 -13 -1 -13 4 0 6 8 10 18 10 14 0 14
2 3 9 -8 5 -15 19 -16 30 -1 15 2 18 10 11 8 -7 12 -5 12 5 0 8 -6 16 -12 19
-8 3 -11 20 -7 51 3 33 1 46 -7 41 -14 -9 -14 -4 -1 28 6 18 6 26 -1 26 -6 0
-8 8 -5 18 4 13 -1 23 -18 32 -14 7 -25 16 -24 19 2 21 -4 31 -19 31 -9 0 -14
3 -10 6 11 11 -17 33 -30 22 -8 -7 -10 -3 -6 14 4 18 3 20 -6 8 -8 -11 -11
-12 -11 -2 0 7 -4 10 -10 7 -5 -3 -10 -3 -10 2 0 4 -11 8 -25 8 -14 0 -25 -4
-25 -10 0 -7 -3 -7 -8 0 -7 10 -48 15 -56 8z m249 -133 c3 -5 1 -10 -4 -10 -6
0 -11 5 -11 10 0 6 2 10 4 10 3 0 8 -4 11 -10z m35 -334 c0 -3 -4 -8 -10 -11
-5 -3 -10 -1 -10 4 0 6 5 11 10 11 6 0 10 -2 10 -4z m0 -480 c0 -3 -4 -8 -10
-11 -5 -3 -10 -1 -10 4 0 6 5 11 10 11 6 0 10 -2 10 -4z m0 -160 c0 -3 -4 -8
-10 -11 -5 -3 -10 -1 -10 4 0 6 5 11 10 11 6 0 10 -2 10 -4z m0 -480 c0 -3 -4
-8 -10 -11 -5 -3 -10 -1 -10 4 0 6 5 11 10 11 6 0 10 -2 10 -4z m-260 -412 c0
-8 -19 -13 -24 -6 -3 5 1 9 9 9 8 0 15 -2 15 -3z"/>
<path d="M597 2081 c-11 -8 -17 -9 -13 -3 11 19 -2 14 -24 -8 -12 -12 -25 -18
-30 -15 -6 4 -10 -1 -10 -9 0 -8 -4 -18 -10 -21 -6 -4 -7 1 -3 12 3 10 4 16 2
13 -36 -43 -42 -52 -29 -45 8 5 3 -3 -12 -18 -16 -15 -25 -32 -22 -40 3 -8 1
-18 -5 -22 -6 -3 -11 -11 -11 -16 0 -6 5 -7 12 -3 7 5 8 3 3 -6 -6 -10 -11 -9
-21 5 -11 15 -13 -88 -14 -612 0 -346 3 -632 6 -636 4 -4 13 -2 21 5 11 9 13
8 11 -3 -2 -8 -7 -17 -13 -21 -6 -4 -2 -8 8 -8 14 0 16 -4 7 -19 -9 -17 -7
-19 9 -16 14 3 18 -1 14 -11 -3 -9 1 -14 12 -14 11 0 15 -5 11 -16 -3 -8 -2
-12 4 -9 6 3 10 1 10 -4 0 -6 7 -11 16 -11 8 0 12 -5 9 -10 -4 -6 7 -10 26
-10 26 0 29 -2 20 -14 -10 -12 -8 -13 8 -9 12 3 29 -1 38 -8 12 -10 14 -10 9
-1 -4 6 -2 12 3 12 6 0 11 -6 11 -12 0 -10 2 -10 9 0 4 8 12 13 17 13 17 -1
44 11 40 18 -3 4 7 7 21 7 15 -1 28 5 31 13 3 9 0 11 -8 6 -8 -5 -11 -4 -6 3
4 6 14 8 23 5 11 -4 14 -3 9 5 -4 7 -2 12 4 12 6 0 8 5 5 11 -4 6 0 9 11 7 14
-2 19 3 18 20 -1 12 3 22 7 22 5 0 9 7 9 15 0 8 5 15 11 15 8 0 7 6 -2 17 -10
12 -10 15 -1 9 9 -6 11 0 7 23 -3 20 -1 31 6 31 8 0 7 6 -2 17 -10 11 -10 14
-1 9 6 -4 12 -2 12 3 0 6 -4 11 -10 11 -5 0 -10 5 -10 11 0 5 4 8 8 5 4 -2 8
4 8 14 0 10 -3 17 -6 15 -3 -2 -5 17 -5 41 0 29 4 44 13 44 7 0 10 -5 6 -12
-4 -7 -3 -8 5 -4 15 10 4 26 -17 26 -15 0 -15 2 -2 10 10 6 11 10 3 10 -7 0
-13 5 -13 11 0 5 4 8 8 5 4 -2 8 4 8 14 0 10 -3 17 -6 15 -3 -2 -7 5 -7 16 -1
10 3 19 8 19 6 0 7 -5 3 -12 -5 -7 -3 -8 5 -4 9 6 8 13 -6 29 -10 11 -12 17
-5 13 6 -4 12 -3 12 3 0 5 -6 11 -12 14 -10 3 -10 7 1 20 10 13 10 17 1 17 -9
0 -9 4 1 17 11 13 11 17 2 20 -7 3 -13 9 -13 14 0 6 5 7 12 3 7 -4 8 -3 4 5
-4 6 -2 19 6 28 7 9 8 14 3 11 -6 -4 -17 -3 -25 3 -12 7 -12 9 -1 9 8 0 11 7
8 20 -4 14 0 20 11 21 14 0 13 2 -3 9 -11 5 -16 9 -12 9 4 1 3 10 -3 21 -8 15
-8 18 3 15 8 -4 13 3 14 15 1 11 -2 20 -8 20 -5 0 -9 5 -9 11 0 5 5 7 11 3 8
-4 8 -1 1 12 -14 26 -13 36 6 58 9 11 12 17 7 13 -6 -3 -17 -2 -25 4 -12 7
-12 9 -1 9 9 0 11 8 7 26 -6 22 -4 25 10 20 16 -6 16 -4 -2 15 -10 12 -13 19
-6 15 6 -4 12 -3 12 3 0 5 -6 11 -12 14 -10 3 -10 7 1 20 10 13 10 17 1 17 -9
0 -9 4 1 17 11 13 11 17 2 20 -7 3 -13 9 -13 14 0 6 5 7 12 3 6 -4 8 -3 4 4
-14 23 -14 72 1 72 8 0 11 -5 7 -12 -4 -7 -3 -8 5 -4 15 10 4 26 -17 26 -15 0
-15 2 -2 10 10 6 11 10 3 10 -7 0 -13 5 -13 11 0 5 4 8 8 5 4 -2 8 4 8 14 0
10 -3 17 -6 15 -9 -6 -5 80 5 95 6 9 4 11 -5 5 -10 -6 -12 -4 -7 7 3 9 0 21
-6 28 -9 10 -9 11 1 6 6 -4 12 -3 12 2 0 6 -7 12 -15 16 -8 3 -15 15 -15 27 0
22 -60 89 -79 89 -6 0 -11 5 -11 12 0 6 -3 8 -7 5 -3 -4 -12 -2 -19 3 -6 6
-16 10 -20 9 -19 -3 -35 1 -31 9 9 13 -45 7 -66 -7z m-170 -1413 c-3 -7 -5 -2
-5 12 0 14 2 19 5 13 2 -7 2 -19 0 -25z m263 -162 c0 -3 -4 -8 -10 -11 -5 -3
-10 -1 -10 4 0 6 5 11 10 11 6 0 10 -2 10 -4z"/>
<path d="M2153 2007 c0 -8 6 -14 14 -14 9 0 10 4 2 14 -6 7 -12 13 -14 13 -1
0 -2 -6 -2 -13z"/>
<path d="M1510 1841 c0 -6 4 -12 8 -15 5 -3 9 1 9 9 0 8 -4 15 -9 15 -4 0 -8
-4 -8 -9z"/>
<path d="M1055 1600 c4 -6 11 -8 16 -5 14 9 11 15 -7 15 -8 0 -12 -5 -9 -10z"/>
<path d="M1055 1520 c4 -6 11 -8 16 -5 14 9 11 15 -7 15 -8 0 -12 -5 -9 -10z"/>
<path d="M1055 1120 c4 -6 11 -8 16 -5 14 9 11 15 -7 15 -8 0 -12 -5 -9 -10z"/>
<path d="M1055 1040 c4 -6 11 -8 16 -5 14 9 11 15 -7 15 -8 0 -12 -5 -9 -10z"/>
<path d="M1510 801 c0 -6 4 -12 8 -15 5 -3 9 1 9 9 0 8 -4 15 -9 15 -4 0 -8
-4 -8 -9z"/>
<path d="M1055 640 c4 -6 11 -8 16 -5 14 9 11 15 -7 15 -8 0 -12 -5 -9 -10z"/>
<path d="M1055 560 c4 -6 11 -8 16 -5 14 9 11 15 -7 15 -8 0 -12 -5 -9 -10z"/>
<path d="M1510 561 c0 -6 4 -12 8 -15 5 -3 9 1 9 9 0 8 -4 15 -9 15 -4 0 -8
-4 -8 -9z"/>
</g>
</svg>
